HIERARCHY
ROOT Hips
{
	OFFSET 0.000000 0.000000 0.000000
	CHANNELS 6 Xposition Yposition Zposition Zrotation Yrotation Xrotation 
	JOINT LHipJoint
	{
		OFFSET 0.000000 0.000000 0.000000
		CHANNELS 3 Zrotation Yrotation Xrotation
		JOINT LeftUpLeg
		{
			OFFSET 1.363060 -1.794630 0.839290
			CHANNELS 3 Zrotation Yrotation Xrotation
			JOINT LeftLeg
			{
				OFFSET 2.448110 -6.726130 0.000000
				CHANNELS 3 Zrotation Yrotation Xrotation
				JOINT LeftFoot
				{
					OFFSET 2.562200 -7.039590 0.000000
					CHANNELS 3 Zrotation Yrotation Xrotation
					JOINT LeftToeBase
					{
						OFFSET 0.157640 -0.433110 2.322550
						CHANNELS 3 Zrotation Yrotation Xrotation
						End Site
						{
							OFFSET 0.000000 0.000000 0.000000
						}
					}
				}
			}
		}
	}
	JOINT RHipJoint
	{
		OFFSET 0.000000 0.000000 0.000000
		CHANNELS 3 Zrotation Yrotation Xrotation
		JOINT RightUpLeg
		{
			OFFSET -1.305520 -1.794630 0.839290
			CHANNELS 3 Zrotation Yrotation Xrotation
			JOINT RightLeg
			{
				OFFSET -2.542530 -6.985550 0.000000
				CHANNELS 3 Zrotation Yrotation Xrotation
				JOINT RightFoot
				{
					OFFSET -2.568260 -7.056230 0.000000
					CHANNELS 3 Zrotation Yrotation Xrotation
					JOINT RightToeBase
					{
						OFFSET -0.164730 -0.452590 2.363150
						CHANNELS 3 Zrotation Yrotation Xrotation
						End Site
						{
							OFFSET 0.000000 0.000000 0.000000
						}
					}
				}
			}
		}
	}
	JOINT LowerBack
	{
		OFFSET 0.000000 0.000000 0.000000
		CHANNELS 3 Zrotation Yrotation Xrotation
		JOINT Spine
		{
			OFFSET 0.028270 2.035590 -0.193380
			CHANNELS 3 Zrotation Yrotation Xrotation
			JOINT Spine1
			{
				OFFSET 0.056720 2.048850 -0.042750
				CHANNELS 3 Zrotation Yrotation Xrotation
				JOINT Neck
				{
					OFFSET 0.000000 0.000000 0.000000
					CHANNELS 3 Zrotation Yrotation Xrotation
					JOINT Neck1
					{
						OFFSET -0.054170 1.746240 0.172020
						CHANNELS 3 Zrotation Yrotation Xrotation
						JOINT Head
						{
							OFFSET 0.104070 1.761360 -0.123970
							CHANNELS 3 Zrotation Yrotation Xrotation
							End Site
							{
								OFFSET 0.000000 0.000000 0.000000
							}
						}
					}
				}
				JOINT LeftShoulder
				{
					OFFSET 0.000000 0.000000 0.000000
					CHANNELS 3 Zrotation Yrotation Xrotation
					JOINT LeftArm
					{
						OFFSET 3.362410 1.200890 -0.311210
						CHANNELS 3 Zrotation Yrotation Xrotation
						JOINT LeftForeArm
						{
							OFFSET 4.983000 -0.000000 -0.000000
							CHANNELS 3 Zrotation Yrotation Xrotation
							JOINT LeftHand
							{
								OFFSET 3.483560 -0.000000 -0.000000
								CHANNELS 3 Zrotation Yrotation Xrotation
								JOINT LeftFingerBase
								{
									OFFSET 0.000000 0.000000 0.000000
									CHANNELS 3 Zrotation Yrotation Xrotation
									JOINT LeftHandIndex1
									{
										OFFSET 0.715260 -0.000000 -0.000000
										CHANNELS 3 Zrotation Yrotation Xrotation
										End Site
										{
											OFFSET 0.000000 0.000000 0.000000
										}
									}
								}
								JOINT LThumb
								{
									OFFSET 0.000000 0.000000 0.000000
									CHANNELS 3 Zrotation Yrotation Xrotation
									End Site
									{
										OFFSET 0.000000 0.000000 0.000000
									}
								}
							}
						}
					}
				}
				JOINT RightShoulder
				{
					OFFSET 0.000000 0.000000 0.000000
					CHANNELS 3 Zrotation Yrotation Xrotation
					JOINT RightArm
					{
						OFFSET -3.136600 1.374050 -0.404650
						CHANNELS 3 Zrotation Yrotation Xrotation
						JOINT RightForeArm
						{
							OFFSET -5.241900 -0.000000 -0.000000
							CHANNELS 3 Zrotation Yrotation Xrotation
							JOINT RightHand
							{
								OFFSET -3.444170 -0.000000 -0.000000
								CHANNELS 3 Zrotation Yrotation Xrotation
								JOINT RightFingerBase
								{
									OFFSET 0.000000 0.000000 0.000000
									CHANNELS 3 Zrotation Yrotation Xrotation
									JOINT RightHandIndex1
									{
										OFFSET -0.622530 -0.000000 -0.000000
										CHANNELS 3 Zrotation Yrotation Xrotation
										End Site
										{
											OFFSET 0.000000 0.000000 0.000000
										}
									}
								}
								JOINT RThumb
								{
									OFFSET 0.000000 0.000000 0.000000
									CHANNELS 3 Zrotation Yrotation Xrotation
									End Site
									{
										OFFSET 0.000000 0.000000 0.000000
									}
								}
							}
						}
					}
				}
			}
		}
	}
}
MOTION
Frames: 11
Frame Time: 0.008333
1.302977 15.150497 -8.057559 4.332590 -36.438318 -25.790913 1.548080 3.581774 3.628438 -9.553045 11.444078 -79.593463 36.319286 14.471488 143.493960 1.115449 -10.548082 -2.448914 0.064400 1.636800 4.503000 -1.999070 -4.722645 7.787090 3.934802 -29.886118 -88.843181 -38.866037 -14.794523 150.355174 -1.166862 4.149806 9.608599 -0.266000 -3.317700 9.164700 -1.184460 2.173722 21.580682 -3.178159 1.549484 29.322593 1.457138 0.503058 -6.899159 -6.596331 -1.432880 -12.508664 6.420242 -1.149638 -2.148423 3.477700 -0.410200 0.973000 -3.809434 -2.577216 -1.100155 -52.991885 -34.396445 59.114986 57.944973 -53.573066 -35.112539 -0.204226 -0.941469 2.191194 31.077154 11.228522 7.373100 -7.125000 0.000000 0.000000 3.713100 44.268300 -0.067200 4.595175 2.600597 -0.638915 56.763313 17.284898 43.961828 -68.937876 54.557329 -48.984786 0.663847 1.455219 21.126383 -55.786196 8.405200 -8.198800 7.125000 0.000000 0.000000 -20.650600 -20.295600 -13.070200 
1.299082 15.158874 -8.051812 4.574816 -36.585899 -25.992817 1.545724 3.577145 3.620920 -9.473913 11.540214 -79.342763 36.275201 14.526210 143.306120 1.143097 -11.423911 -1.946438 0.079700 1.821200 5.011700 -2.001065 -4.728770 7.783111 3.657983 -29.870583 -88.666368 -38.855486 -14.823987 150.302318 -1.210953 4.343083 9.724120 -0.272300 -3.356800 9.273700 -1.307231 2.232300 21.556720 -3.213994 1.591898 29.330295 1.500145 0.518786 -6.850543 -6.690651 -1.471830 -12.392934 6.337306 -1.182894 -2.430474 3.468800 -0.428700 0.881800 -3.811414 -2.572270 -1.101799 -53.081379 -34.274678 59.187214 58.004578 -53.592131 -35.164955 -0.205882 -0.942199 2.337384 31.168892 11.370099 7.483400 -7.125000 0.000000 0.000000 3.790800 44.445600 -0.051900 4.595857 2.598898 -0.641371 56.735343 17.233138 44.048560 -68.952451 54.559137 -48.987837 0.654518 1.451390 21.189587 -56.078445 7.854906 -7.473800 7.125000 0.000000 0.000000 -21.015800 -21.147400 -12.897300 
1.294796 15.162672 -8.050449 4.616741 -36.728348 -26.000770 1.559098 3.579040 3.615796 -9.265470 11.665090 -79.294814 36.264770 14.561817 143.239075 1.160694 -12.122244 -1.559227 0.070700 1.714900 4.718300 -2.016152 -4.737894 7.793226 3.686462 -29.633372 -88.630625 -38.849429 -14.828400 150.266311 -1.197069 4.280989 9.790997 -0.286000 -3.439000 9.503600 -1.350160 2.282685 21.558712 -3.164195 1.631081 29.325039 1.532375 0.542320 -6.843395 -6.649593 -1.537166 -12.328489 6.132536 -1.256352 -2.750604 3.399700 -0.466800 0.786300 -3.822669 -2.560958 -1.105466 -53.102270 -34.225188 59.192224 58.048214 -53.605484 -35.199934 -0.208982 -0.944877 2.606607 31.313657 11.765128 7.760100 -7.125000 0.000000 0.000000 3.904900 44.925200 -0.007200 4.587293 2.603420 -0.641396 56.699910 17.188845 44.028542 -69.024703 54.584887 -49.066357 0.656566 1.463195 21.323688 -55.817316 7.691696 -7.161600 7.125000 0.000000 0.000000 -20.898100 -21.473300 -12.646700 
1.290705 15.161698 -8.052299 4.498843 -36.876880 -25.899214 1.582293 3.588159 3.612806 -8.901192 11.785478 -79.368062 36.267047 14.600331 143.204081 1.166076 -12.726253 -1.129209 0.066800 1.667800 4.588300 -2.044093 -4.747265 7.812966 3.977721 -29.224510 -88.704121 -38.846023 -14.812382 150.240143 -1.136457 4.011409 9.806790 -0.288900 -3.456400 9.552100 -1.267394 2.291219 21.605212 -3.124948 1.652219 29.315207 1.500289 0.557271 -6.873127 -6.609184 -1.612437 -12.269215 6.030852 -1.347860 -3.052275 3.360300 -0.513500 0.698700 -3.829767 -2.555535 -1.108246 -52.963798 -34.229552 59.186791 58.133309 -53.629800 -35.272645 -0.212863 -0.943339 2.797304 31.517527 11.851940 7.873600 -7.125000 0.000000 0.000000 4.093300 45.054400 0.005500 4.582427 2.608408 -0.643308 56.753649 17.204454 43.987454 -69.063484 54.601499 -49.127275 0.669744 1.475595 21.436639 -55.324654 8.172460 -7.722500 7.125000 0.000000 0.000000 -20.424000 -20.783800 -12.663300 
1.286907 15.164620 -8.051423 4.347026 -37.123159 -25.857416 1.612133 3.601828 3.611951 -8.420070 12.107769 -79.220492 36.258727 14.670579 143.092384 1.169614 -13.436625 -0.657092 0.089300 1.926900 5.303600 -2.076703 -4.754202 7.823928 4.232413 -28.847465 -88.541415 -38.832923 -14.807171 150.185006 -1.124843 3.940243 9.779111 -0.305700 -3.554600 9.826800 -1.086208 2.292764 21.644944 -3.097464 1.692541 29.342954 1.392712 0.580185 -6.856788 -6.733589 -1.628016 -12.256522 6.167529 -1.354370 -3.243913 3.420000 -0.516300 0.648300 -3.827480 -2.561586 -1.108293 -52.812092 -34.233700 59.198645 58.276557 -53.670511 -35.393160 -0.217013 -0.944001 2.779892 31.808415 12.022182 8.066900 -7.125000 0.000000 0.000000 4.364000 45.295200 0.031900 4.582269 2.606888 -0.647060 56.821242 17.248600 43.991034 -69.031022 54.592270 -49.109652 0.678853 1.478754 21.476303 -55.079614 8.563234 -8.209800 7.125000 0.000000 0.000000 -20.144300 -20.197000 -12.752900 
1.282816 15.169490 -8.046943 4.286800 -37.348779 -25.828301 1.632054 3.610864 3.612007 -8.090051 12.413872 -79.061104 36.247616 14.732709 142.979162 1.175014 -13.998616 -0.378031 0.095100 1.989100 5.475500 -2.094560 -4.756555 7.824439 4.333766 -28.675037 -88.395618 -38.823797 -14.807442 150.157919 -1.155013 4.053396 9.777329 -0.336100 -3.725600 10.305900 -0.927039 2.291717 21.543993 -3.110515 1.734804 29.383579 1.281826 0.599301 -6.748467 -6.884113 -1.612752 -12.214003 6.336850 -1.319310 -3.427555 3.495000 -0.498900 0.595500 -3.820483 -2.572936 -1.108392 -52.693435 -34.257323 59.208667 58.318563 -53.678766 -35.421803 -0.220412 -0.945254 2.685336 32.015624 12.232409 8.260500 -7.125000 0.000000 0.000000 4.555500 45.571200 0.064400 4.584300 2.607761 -0.649907 56.856303 17.291346 44.024626 -69.007709 54.586241 -49.107273 0.686936 1.494288 21.456312 -54.565378 8.686335 -8.233000 7.125000 0.000000 0.000000 -19.775300 -20.105600 -12.531700 
1.279310 15.167932 -8.043728 4.241967 -37.449255 -25.739402 1.640861 3.615928 3.612251 -7.899348 12.509878 -79.087337 36.246506 14.759534 142.944355 1.175239 -14.328764 -0.186772 0.088800 1.921800 5.289700 -2.098678 -4.754885 7.826995 4.441679 -28.605189 -88.487427 -38.829118 -14.791597 150.192274 -1.153423 4.044710 9.811012 -0.357700 -3.842000 10.632700 -0.804797 2.275391 21.435598 -3.135944 1.752069 29.396275 1.204513 0.605074 -6.673758 -6.846483 -1.629514 -12.174334 6.301368 -1.338917 -3.596019 3.476900 -0.509700 0.545600 -3.819825 -2.576833 -1.108861 -52.584443 -34.306102 59.303367 58.214397 -53.643502 -35.323256 -0.226789 -0.941659 2.903670 32.220609 12.357163 8.400700 -7.125000 0.000000 0.000000 4.747900 45.743800 0.087400 4.584303 2.614476 -0.651238 56.892737 17.317505 43.985849 -68.986137 54.588241 -49.128702 0.704876 1.525148 21.489555 -53.455795 9.002598 -8.343700 7.125000 0.000000 0.000000 -18.962100 -19.828000 -12.078700 
1.276485 15.161990 -8.043923 4.205328 -37.461166 -25.667039 1.642127 3.616882 3.611894 -7.787794 12.475506 -79.180491 36.250896 14.762138 142.959969 1.167358 -14.462052 0.011179 0.085800 1.889700 5.200800 -2.095071 -4.752515 7.829922 4.521256 -28.610808 -88.640458 -38.840931 -14.770519 150.252758 -1.138605 3.986545 9.864922 -0.372000 -3.917500 10.844700 -0.765769 2.255954 21.437688 -3.154205 1.740299 29.398069 1.183592 0.595991 -6.667273 -6.757862 -1.623625 -12.197627 6.235360 -1.331075 -3.708476 3.443300 -0.505700 0.515200 -3.820290 -2.576437 -1.108665 -52.479754 -34.312994 59.375039 58.099084 -53.607003 -35.216845 -0.235663 -0.936167 3.422678 32.486343 12.554653 8.605500 -7.125000 0.000000 0.000000 4.993900 46.009800 0.124800 4.583609 2.619995 -0.650874 56.915476 17.360400 43.933748 -69.010987 54.602991 -49.187694 0.719689 1.547150 21.628122 -52.622067 9.256036 -8.434300 7.125000 0.000000 0.000000 -18.346000 -19.600400 -11.740500 
1.273856 15.156828 -8.043241 4.222187 -37.459405 -25.652881 1.642456 3.615870 3.611394 -7.744626 12.455904 -79.233650 36.256336 14.757194 142.986637 1.162263 -14.525601 0.123067 0.064300 1.635500 4.499400 -2.089289 -4.751040 7.830789 4.581378 -28.650762 -88.754568 -38.847586 -14.761364 150.283088 -1.129407 3.954053 10.000330 -0.402700 -4.074200 11.285600 -0.776708 2.251667 21.451955 -3.131757 1.728236 29.410461 1.188764 0.590162 -6.638200 -6.850012 -1.609717 -12.115807 6.280811 -1.299300 -3.938937 3.473500 -0.490500 0.439200 -3.818469 -2.579905 -1.111057 -52.444078 -34.315358 59.362491 58.103144 -53.606066 -35.217782 -0.237506 -0.935167 3.609738 32.539327 12.668974 8.692300 -7.125000 0.000000 0.000000 5.038800 46.150400 0.143400 4.579416 2.621848 -0.650161 56.829753 17.397991 43.895064 -69.104848 54.631618 -49.286838 0.722300 1.555945 21.698974 -52.379083 9.241988 -8.343600 7.125000 0.000000 0.000000 -18.189500 -19.673200 -11.597800 
1.271810 15.154101 -8.040807 4.352652 -37.413216 -25.767354 1.632771 3.609963 3.610563 -7.794815 12.404271 -79.126206 36.245173 14.753989 142.960904 1.162164 -14.642163 0.182395 0.049100 1.429800 3.932100 -2.071849 -4.746162 7.820911 4.480805 -28.880323 -88.744286 -38.850533 -14.770240 150.296078 -1.155988 4.079171 10.261131 -0.471600 -4.404200 12.216800 -0.846853 2.254908 21.488602 -3.123256 1.711910 29.431757 1.222066 0.579549 -6.589678 -6.965771 -1.619925 -11.931455 6.289816 -1.296817 -4.293838 3.497600 -0.490900 0.315900 -3.815650 -2.586978 -1.114166 -52.453850 -34.308191 59.328812 58.175748 -53.625087 -35.277837 -0.237021 -0.938968 3.441978 32.588583 12.851119 8.822600 -7.125000 0.000000 0.000000 5.080300 46.373700 0.172700 4.574276 2.630289 -0.649540 56.739952 17.508092 43.874392 -69.012356 54.598037 -49.194341 0.718874 1.560775 21.702459 -52.207954 8.958478 -7.942100 7.125000 0.000000 0.000000 -18.151500 -20.132400 -11.372600 
1.268986 15.152543 -8.038859 4.597916 -37.310657 -25.982362 1.607309 3.596817 3.608877 -7.967361 12.302829 -78.927452 36.219458 14.750137 142.893640 1.162636 -14.729588 0.217562 0.052300 1.475200 4.057300 -2.040225 -4.736834 7.799086 4.130776 -29.344991 -88.666262 -38.859600 -14.783328 150.347302 -1.215545 4.357832 10.488725 -0.535700 -4.689700 13.025600 -1.006075 2.243749 21.568614 -3.230175 1.670107 29.441598 1.289673 0.542278 -6.568350 -6.908519 -1.612098 -11.766130 6.199206 -1.283913 -4.590612 3.466300 -0.486200 0.206500 -3.809101 -2.591109 -1.114984 -52.402973 -34.210559 59.198509 58.217536 -53.636776 -35.311819 -0.239303 -0.940943 3.313396 32.745504 12.994944 8.966300 -7.125000 0.000000 0.000000 5.229500 46.568400 0.203000 4.578021 2.643119 -0.648656 56.757274 17.659621 43.960072 -68.817792 54.531123 -49.004555 0.715984 1.560587 21.747512 -52.135252 8.678707 -7.577100 7.125000 0.000000 0.000000 -18.176800 -20.562900 -11.203300 
